solid ASCII
  facet normal 0.000000e+00 1.000000e+00 0.000000e+00
    outer loop
      vertex   -4.655277e+01 1.044551e+02 4.783051e+00
      vertex   -4.655277e+01 1.044551e+02 1.071912e+01
      vertex   -3.375277e+01 1.044551e+02 4.783051e+00
    endloop
  endfacet
  facet normal 0.000000e+00 1.000000e+00 -0.000000e+00
    outer loop
      vertex   -3.375277e+01 1.044551e+02 4.783051e+00
      vertex   -4.655277e+01 1.044551e+02 1.071912e+01
      vertex   -3.375277e+01 1.044551e+02 1.071912e+01
    endloop
  endfacet
  facet normal 1.000000e+00 -0.000000e+00 0.000000e+00
    outer loop
      vertex   -3.375277e+01 9.345514e+01 1.071912e+01
      vertex   -3.375277e+01 9.345514e+01 4.783051e+00
      vertex   -3.375277e+01 1.044551e+02 1.071912e+01
    endloop
  endfacet
  facet normal 1.000000e+00 0.000000e+00 0.000000e+00
    outer loop
      vertex   -3.375277e+01 1.044551e+02 1.071912e+01
      vertex   -3.375277e+01 9.345514e+01 4.783051e+00
      vertex   -3.375277e+01 1.044551e+02 4.783051e+00
    endloop
  endfacet
  facet normal 0.000000e+00 -1.614870e-16 1.000000e+00
    outer loop
      vertex   -4.655277e+01 9.345514e+01 1.071912e+01
      vertex   -3.375277e+01 9.345514e+01 1.071912e+01
      vertex   -4.655277e+01 1.044551e+02 1.071912e+01
    endloop
  endfacet
  facet normal 0.000000e+00 -1.614870e-16 1.000000e+00
    outer loop
      vertex   -4.655277e+01 1.044551e+02 1.071912e+01
      vertex   -3.375277e+01 9.345514e+01 1.071912e+01
      vertex   -3.375277e+01 1.044551e+02 1.071912e+01
    endloop
  endfacet
  facet normal -1.000000e+00 0.000000e+00 0.000000e+00
    outer loop
      vertex   -4.655277e+01 9.345514e+01 4.783051e+00
      vertex   -4.655277e+01 9.345514e+01 1.071912e+01
      vertex   -4.655277e+01 1.044551e+02 4.783051e+00
    endloop
  endfacet
  facet normal -1.000000e+00 0.000000e+00 0.000000e+00
    outer loop
      vertex   -4.655277e+01 1.044551e+02 4.783051e+00
      vertex   -4.655277e+01 9.345514e+01 1.071912e+01
      vertex   -4.655277e+01 1.044551e+02 1.071912e+01
    endloop
  endfacet
  facet normal 0.000000e+00 2.422305e-16 -1.000000e+00
    outer loop
      vertex   -3.375277e+01 9.345514e+01 4.783051e+00
      vertex   -4.655277e+01 9.345514e+01 4.783051e+00
      vertex   -3.375277e+01 1.044551e+02 4.783051e+00
    endloop
  endfacet
  facet normal 0.000000e+00 2.422305e-16 -1.000000e+00
    outer loop
      vertex   -3.375277e+01 1.044551e+02 4.783051e+00
      vertex   -4.655277e+01 9.345514e+01 4.783051e+00
      vertex   -4.655277e+01 1.044551e+02 4.783051e+00
    endloop
  endfacet
  facet normal 0.000000e+00 -1.000000e+00 0.000000e+00
    outer loop
      vertex   -4.655277e+01 9.345514e+01 4.783051e+00
      vertex   -3.375277e+01 9.345514e+01 4.783051e+00
      vertex   -4.655277e+01 9.345514e+01 1.071912e+01
    endloop
  endfacet
  facet normal 0.000000e+00 -1.000000e+00 0.000000e+00
    outer loop
      vertex   -4.655277e+01 9.345514e+01 1.071912e+01
      vertex   -3.375277e+01 9.345514e+01 4.783051e+00
      vertex   -3.375277e+01 9.345514e+01 1.071912e+01
    endloop
  endfacet
endsolid
